<?xml version="1.0" encoding="utf-8"?>
<!-- Generator: Adobe Illustrator 21.1.0, SVG Export Plug-In . SVG Version: 6.00 Build 0)  -->
<svg version="1.1" id="Layer_1" xmlns="http://www.w3.org/2000/svg" xmlns:xlink="http://www.w3.org/1999/xlink" x="0px" y="0px"
	 viewBox="0 0 387.7 238.7" style="enable-background:new 0 0 387.7 238.7;" xml:space="preserve">
<style type="text/css">
	.st0{fill:#3FBFBB;}
	.st1{fill:#CEECE9;}
	.st2{fill:#99D9D5;}
	.st3{fill:#BDE6E3;}
	.st4{fill:#DFF2F0;}
	.st5{fill:#EAD7C5;}
	.st6{fill:#FBEB34;}
	.st7{fill:#FFCF2B;}
	.st8{fill:none;}
	.st9{fill:#F7323F;}
	.st10{fill:#FBB475;}
	.st11{fill:#FFFFFF;}
	.st12{fill:#DBD9D6;}
	.st13{fill:#2E2A25;}
	.st14{fill:#7B2E00;}
</style>
<g>
	<g>
		<path class="st0" d="M274.3,227.3c-0.4-0.2-39.8-13.6-39.8-13.6s-3.4-0.4-1.6,3.7c0.9,2,2.5,3.9,4.1,5.5c-1.9-1.2-3.8-2.3-5.4-3.3
			c1.2,2.9,3.6,5.6,4,6.2c0.5,0.7,13.6,9.5,17,11.6c3.4,2.1,6.3,1.3,7.2,0.6c0.8-0.6,0-1.4-0.2-1.5c-0.3-0.2-4.9-2.8-4.9-2.8
			s-0.5-0.2-6.5-3.9c4.9,2.1,10.8,4.6,13.4,5.6c4.8,1.8,8,1.2,8.9,0.3c0.9-1-0.3-1.7-0.6-1.9c-0.4-0.2-1.9-0.8-1.9-0.8
			s-3-1.1-21.3-9.1c22,9,29.5,8.4,30.1,6.2C277.3,227.9,274.7,227.5,274.3,227.3z"/>
		<g>
			<path class="st1" d="M214.8,184.7c0,0,21.3-40.3,29.2-72.2c12.9-52,10-79.1,12.5-79.5c2.7-0.2,8.1,1.6,12,13.1
				c4,11.6,3.4,34.1-3,57.3C262.4,114.7,250.3,148,214.8,184.7z"/>
			<path class="st0" d="M212.2,184.7c0,0,37.9-42.3,72.3-102.5c19.8-34.6,37.3-70.5,39.3-73.4c1.9-3,10.1-18.3,14.6,0.2
				c13.3,54.2-39.9,115.2-62.6,134.7C244.5,170.5,212.2,184.7,212.2,184.7z"/>
			<path class="st2" d="M211.9,183.1c0,0,32.1-9.4,82.7-52.5c29.1-24.8,50.1-48.5,61.2-58.9c3.2-3,15-13.2,13.1,4.9
				c-5.6,53.1-73.9,87.9-100.8,98.1C231.2,188.8,211.9,183.1,211.9,183.1z"/>
			<path class="st3" d="M226.9,184.5c0,0,27.1-2.4,49.6-12c29.6-12.7,81.7-43.7,86.9-38.7c3.1,3-0.6,15.9-17.5,27.7
				C307.2,188.4,237.4,193.9,226.9,184.5z"/>
			<path class="st4" d="M219.4,180.6c0,0,2.6,7.1,26.1,8c32.2,1.2,92.3-8.7,95.1-2.1c1.7,4-6.7,14.4-26.9,18.7
				C267.6,215.2,225.5,193.3,219.4,180.6z"/>
		</g>
		<path class="st5" d="M206.7,214.8c-3-2.4-14.1-39-17.7-48.1l-77.4-5.7c36.1,3,36.6,22.9,59.8,51.7h0.1
			c10.4,14.7,24.2,19.3,41,19.3c11.9,0,18-2.6,27.4-8.5C232.7,222.4,214,220.7,206.7,214.8z"/>
		<path class="st6" d="M240.3,193.4c-2.4-3.2-5.4-6.3-8.9-9.2c-2-1.6-4-3-6.1-4.2c-1.8-2.8-3-6.2-3.5-9.6
			c-1.1-7.7-4.1-14.7-8.6-20.6c-9.1-13-24.2-21.5-41.3-21.5c-20,0-32.1,13-40.2,30c2.8,0.7,0.3,0.1,3.1,0.9
			c19.1,5.4,36,12.8,52.5,23c-4.1,9.3,3.2,24.7,16.4,35.3c7.3,5.9,18.2,8.5,25.4,8.7c10.6,0.3,19.3-4.3,21-8.4
			C249.5,209.5,248.1,203.8,240.3,193.4z"/>
		<path class="st7" d="M205.4,140.9c-7.5-6.7-17.1-11.2-27.7-12.4c6.8-3.5,13.3-6.8,13.4-6.9c0.3-0.2,2.2-0.7,1.6-2.5
			c-0.7-1.8-6.5-1.6-22.3,7.8c13.1-8.3,15.2-9.5,15.2-9.5s1.1-0.6,1.4-0.8c0.3-0.2,1.1-0.9,0.3-1.7c-0.8-0.8-3.3-1-6.7,1
			c-1.9,1.1-6.1,3.7-9.6,5.9c4.2-3.6,4.5-3.9,4.5-3.9s3.3-2.6,3.4-2.8c0.2-0.2,0.7-0.9,0-1.3c-0.7-0.5-3-0.9-5.4,1.1
			c-2.4,2-12.8,13-13.5,14.7c-11.7,1-30.2,12.8-28.5,28.7c2.8,0.7,0.8,0.2,3.5,1c0,0,12,4,14.8,5.3l7.3,2.9c-0.6-2.1-1-6.2-0.9-8.5
			c0.1-4.1,6.9-19.2,22.7-22.1c1.9-0.2,3.8-0.3,5.8-0.3C192.3,136.6,199.2,138.1,205.4,140.9z"/>
		<path class="st7" d="M222.3,177.6c-0.1,9-2.8,17.4-7.4,24.4c-3.5,5.3-8.1,9.9-13.4,13.4c0.8,0.7,1.6,1.5,2.4,2.3
			c4.9-4,9.1-9,12.2-14.6c4-7.2,6.3-15.5,6.3-24.4C222.3,178.3,222.3,178,222.3,177.6z"/>
		<path class="st8" d="M195.4,207.8c-0.2-0.1-0.4-0.3-0.5-0.4c0.1,0.1,0.2,0.3,0.3,0.4C195.3,207.7,195.3,207.8,195.4,207.8z"/>
		<path class="st10" d="M170.2,174.6c0,0,7.3-11.1,13.6-12.7c6.2-1.6,9.8-1.3,13.2,2.8s3.8,11,3.1,14.8c-4-1-7.1-2.4-11-2.6
			c-3.9-0.2-17.5,0.3-17.5,0.3L170.2,174.6z"/>
		<path class="st11" d="M138,157.8c-3.8,3.8-10,3.7-13.8-0.2c-3.8-3.8-3.7-10,0.2-13.8c3.8-3.8,10-3.7,13.8,0.2
			C141.9,147.9,141.9,154,138,157.8"/>
		<path class="st12" d="M126.4,142.4c1.3-0.7,2.7-1.2,4.1-1.3c0,0-6.2,0.8-7.1,7.5c-0.9,6.7,5.6,11.7,8,11.9
			c-2.6,0.1-5.2-0.9-7.2-2.9c-3.8-3.8-3.7-10,0.2-13.8C125,143.3,125.7,142.8,126.4,142.4"/>
		<path class="st13" d="M138.6,149.6c0.9,2.6-0.5,5.4-3.1,6.3c-2.6,0.9-5.4-0.5-6.3-3.1c-0.9-2.6,0.5-5.4,3.1-6.3
			C134.9,145.6,137.7,147,138.6,149.6"/>
		<path class="st11" d="M137.3,149.7c0.3,0.9-0.2,1.8-1,2.1c-0.9,0.3-1.8-0.2-2.1-1c-0.3-0.9,0.2-1.8,1-2.1
			C136.1,148.3,137,148.8,137.3,149.7"/>
		<path class="st14" d="M178.7,188.3l-17-12.1l-56.9-15.7c-0.9-0.2-1.5,0.8-1,1.5l0,0c22.3,4.4,34.4,12.4,48.2,23.8
			C156.5,190.2,168.8,193.6,178.7,188.3z"/>
		<path class="st9" d="M188.2,178.5c-0.5-4.4-3.8,1.4-18-5.8c-0.7-0.4-2-1.1-2-1.1c0,0-19.3-8.6-34.8-13c-2.6-0.7-5.2-1.4-7.8-2.1
			c-15.2-3.7-31.2-5.7-47.6-5.7c-25.8,0-50.5,4.9-73.2,13.7c17.1-4.7,35.2-7.3,53.8-7.3c22.1,0,43.4,3.6,63.3,10.2
			c2.8,0.9,5.6,1.9,8.3,3c9.5,3.6,18.2,6.9,29.5,14.5c0.4,0.3,2.8,2,7.9,4.4c1.5,0.7,5.8,1.3,9.4-0.3
			C182.9,186.5,188.7,183.1,188.2,178.5z"/>
		<path class="st11" d="M181.4,172.5c-6.1,6.1-16.1,6.1-22.3,0c-6.1-6.1-6.1-16.1,0-22.3c6.1-6.1,16.1-6.1,22.3,0
			C187.5,156.4,187.5,166.4,181.4,172.5"/>
		<path class="st12" d="M155,157.4c0.6-2.3,1.7-4.4,3.2-6.2c0,0-6.1,8.1,0.6,16.8c6.7,8.6,19.9,6.7,22.8,4.1c-2.9,3.1-7,5-11.5,5
			c-8.7,0-15.7-7-15.7-15.7C154.5,160,154.7,158.7,155,157.4"/>
		<path class="st14" d="M177.5,182.6c-4.5,2.4-12.9,1.4-17.6,0.7c-3.1-0.4-8.2-3.4-11.3-5c0,0.4,8.3,6.9,8.8,7.3
			c1.2,0.9,4.1,1.8,7.1,1.9c3.9,0,7.8-0.1,16.5-4.8C182.2,181.9,181.7,180.5,177.5,182.6z"/>
		<path class="st13" d="M182.2,159.3c1.5,4.3-0.9,9-5.2,10.5c-4.3,1.5-9-0.9-10.5-5.2c-1.5-4.3,0.9-9,5.2-10.5
			C176,152.7,180.7,155,182.2,159.3"/>
		<path class="st11" d="M180,159.4c0.5,1.4-0.3,3-1.7,3.5c-1.4,0.5-3-0.3-3.5-1.7c-0.5-1.4,0.3-3,1.7-3.5S179.6,158,180,159.4"/>
	</g>
	<g>
		<path class="st0" d="M357,30.4v6.1h-0.9v-6.1h-2.4v-0.9h5.8v0.9H357z"/>
		<path class="st0" d="M366.6,30.7l-2.1,5.7h-0.9l-2.1-5.7l-0.1,5.8h-0.9l0.2-7h1.3l2.1,5.7l2.1-5.7h1.2l0.2,7h-1L366.6,30.7z"/>
	</g>
</g>
</svg>
