<svg viewBox="0 0 512 512" xmlns="http://www.w3.org/2000/svg"><path d="m512 256c0 141.386719-114.613281 256-256 256s-256-114.613281-256-256 114.613281-256 256-256 256 114.613281 256 256zm0 0" fill="#9331b2"/><path d="m512 256c0-27.433594-4.332031-53.855469-12.324219-78.632812l-75.683593-75.683594h-335.984376v308.097656l90.15625 90.152344c24.546876 7.828125 50.695313 12.066406 77.835938 12.066406 141.386719 0 256-114.613281 256-256zm0 0" fill="#5c1b6f"/><path d="m88.007812 150.609375h335.984376v259.171875h-335.984376zm0 0" fill="#fff"/><path d="m256 150.609375h167.988281v259.171875h-167.988281zm0 0" fill="#fff5cb"/><path d="m88.007812 101.683594h335.984376v54.359375h-335.984376zm0 0" fill="#ffaa20"/><path d="m256 101.679688h167.988281v54.359374h-167.988281zm0 0" fill="#e67500"/><path d="m317.863281 128.863281c0 8.945313-7.25 16.195313-16.195312 16.195313-8.945313 0-16.195313-7.25-16.195313-16.195313 0-8.945312 7.25-16.199219 16.195313-16.199219 8.945312 0 16.195312 7.253907 16.195312 16.199219zm0 0" fill="#00e8f2"/><path d="m360.695312 128.863281c0 8.945313-7.25 16.195313-16.195312 16.195313s-16.195312-7.25-16.195312-16.195313c0-8.945312 7.25-16.199219 16.195312-16.199219s16.195312 7.253907 16.195312 16.199219zm0 0" fill="#ffd400"/><path d="m403.527344 128.863281c0 8.945313-7.25 16.195313-16.195313 16.195313-8.945312 0-16.195312-7.25-16.195312-16.195313 0-8.945312 7.25-16.199219 16.195312-16.199219 8.945313 0 16.195313 7.253907 16.195313 16.199219zm0 0" fill="#00e8f2"/><path d="m129.703125 272.730469 65.367187-39.53125v18.210937l-40.621093 25.210938 40.621093 24.589844v18.988281l-65.367187-38.910157zm0 0" fill="#ff328e"/><path d="m305.976562 216.5-75.792968 110.5h-18.988282l75.792969-110.5zm0 0" fill="#ff328e"/><g fill="#c50a5b"><path d="m286.988281 216.503906-30.988281 45.179688v27.671875l49.976562-72.851563zm0 0"/><path d="m382.296875 281.289062-65.523437 38.910157v-18.988281l40.621093-24.589844-40.621093-25.210938v-18.210937l65.523437 39.53125zm0 0"/></g></svg>