<svg viewBox="0 0 512 512" xmlns="http://www.w3.org/2000/svg"><path d="m512 256c0 141.386719-114.613281 256-256 256s-256-114.613281-256-256 114.613281-256 256-256 256 114.613281 256 256zm0 0" fill="#ffec97"/><path d="m512 256c0-3.5-.089844-6.980469-.230469-10.445312l-245.320312-245.324219c-.003907 0-.007813 0-.007813 0-1.667968-.070313-3.339844-.121094-5.011718-.1640628-1.808594-.0351562-3.613282-.0664062-5.429688-.0664062s-3.621094.03125-5.429688.0703125c-1.671874.0390625-3.34375.0937495-5.011718.1601565h-.003906v123.261719h-26.136719c-11.507813 0-20.832031 9.324218-20.832031 20.832031v8.882812h-38.652344c-49.761719 0-90.476563 40.714844-90.476563 90.476563v99.160156c0 18.585938 8.652344 35.140625 22.136719 45.886719 0 0 59.070312 59.246093 118.984375 119.25 14.742187 2.640625 29.921875 4.019531 45.421875 4.019531 141.386719 0 256-114.613281 256-256zm0 0" fill="#ffd400"/><path d="m266.449219 127.65625v-127.425781c-3.46875-.1406252-6.949219-.230469-10.449219-.230469s-6.980469.0898438-10.445312.230469v127.425781zm0 0" fill="#57555c"/><path d="m266.449219.230469v127.429687h-10.449219v-127.660156c3.5 0 6.980469.0898438 10.449219.230469zm0 0" fill="#3c3b41"/><path d="m313.417969 158.992188h-114.835938v-14.667969c0-11.507813 9.328125-20.832031 20.832031-20.832031h73.167969c11.507813 0 20.832031 9.324218 20.832031 20.832031v14.667969zm0 0" fill="#78777f"/><path d="m313.421875 144.320312v14.667969h-57.421875v-35.5h36.578125c11.511719 0 20.84375 9.332031 20.84375 20.832031zm0 0" fill="#57555c"/><path d="m352.070312 153.207031h-192.136718c-49.761719 0-90.476563 40.714844-90.476563 90.476563v99.160156c0 32.402344 26.269531 58.671875 58.671875 58.671875 28.25 0 52.484375-20.128906 57.675782-47.894531l8.257812-44.195313h123.878906l8.257813 44.195313c5.191406 27.765625 29.425781 47.894531 57.671875 47.894531 32.40625 0 58.675781-26.269531 58.675781-58.671875v-99.164062c-.003906-49.757813-40.71875-90.472657-90.476563-90.472657zm0 0" fill="#9331b2"/><path d="m442.539062 243.679688v99.160156c0 16.199218-6.570312 30.871094-17.179687 41.488281-10.621094 10.613281-25.289063 17.183594-41.488281 17.183594-28.25 0-52.480469-20.121094-57.671875-47.890625l-8.257813-44.191406h-61.941406v-156.21875h96.070312c49.757813 0 90.46875 40.710937 90.46875 90.46875zm0 0" fill="#5c1b6f"/><path d="m228.457031 240.335938h55.085938v26.859374h-55.085938zm0 0" fill="#00e8f2"/><g fill="#00b7be"><path d="m256 240.328125h27.539062v26.863281h-27.539062zm0 0"/><path d="m386.367188 212.742188c0 8.03125-6.507813 14.539062-14.539063 14.539062-8.027344 0-14.535156-6.507812-14.535156-14.539062 0-8.027344 6.507812-14.535157 14.535156-14.535157 8.03125 0 14.539063 6.507813 14.539063 14.535157zm0 0"/><path d="m386.367188 265.84375c0 8.03125-6.507813 14.539062-14.539063 14.539062-8.027344 0-14.535156-6.507812-14.535156-14.539062 0-8.027344 6.507812-14.535156 14.535156-14.535156 8.03125 0 14.539063 6.507812 14.539063 14.535156zm0 0"/></g><path d="m412.917969 239.296875c0 8.027344-6.507813 14.535156-14.535157 14.535156-8.03125 0-14.539062-6.507812-14.539062-14.535156 0-8.03125 6.507812-14.539063 14.539062-14.539063 8.027344 0 14.535157 6.507813 14.535157 14.539063zm0 0" fill="#ff9a00"/><path d="m359.816406 239.296875c0 8.027344-6.507812 14.535156-14.539062 14.535156-8.027344 0-14.535156-6.507812-14.535156-14.535156 0-8.03125 6.507812-14.539063 14.535156-14.539063 8.03125 0 14.539062 6.507813 14.539062 14.539063zm0 0" fill="#ff9a00"/><path d="m172.234375 224.636719h-15.53125v-15.53125c0-5.996094-4.902344-10.902344-10.898437-10.902344h-9.398438c-5.992188 0-10.898438 4.90625-10.898438 10.902344v15.53125h-15.527343c-5.996094 0-10.898438 4.902343-10.898438 10.898437v9.394532c0 5.996093 4.902344 10.898437 10.898438 10.898437h15.53125v15.53125c0 5.992187 4.902343 10.898437 10.898437 10.898437h9.398438c5.992187 0 10.898437-4.902343 10.898437-10.898437v-15.53125h15.53125c5.992188 0 10.898438-4.902344 10.898438-10.898437v-9.394532c-.003907-5.996094-4.90625-10.898437-10.902344-10.898437zm0 0" fill="#ffec97"/></svg>