<?xml version="1.0" encoding="iso-8859-1"?>
<!-- Generator: Adobe Illustrator 19.0.0, SVG Export Plug-In . SVG Version: 6.00 Build 0)  -->
<svg version="1.1" id="Layer_1" xmlns="http://www.w3.org/2000/svg" xmlns:xlink="http://www.w3.org/1999/xlink" x="0px" y="0px"
	 viewBox="0 0 512 512" style="enable-background:new 0 0 512 512;" xml:space="preserve">
<circle style="fill:#273B7A;" cx="256" cy="256" r="256"/>
<path style="fill:#121149;" d="M316.873,504.698c100.288-24.464,177.417-107.991,192.448-211.646L357.024,140.755l-16.608,19.573
	l-81.144-81.649l-4.422,24.466v10.888l53.324,53.322L279.14,258.82l-97.956-97.954l-3.336-1.121l-2.76,7.215l101.112,101.112
	l-23.642,74.476L149.551,239.54l-9.269,1.876l-25.922,3.368l128.843,127.241l-1.586,4.998l-60.433-60.433l-7.209,7.935l0.079,0.079
	l-19.077,18.194L316.873,504.698z"/>
<path style="fill:#FFC61B;" d="M341.333,227.556c0-48.266-40.072-87.173-88.762-85.266c-43.625,1.708-79.357,36.821-81.77,80.413
	c-1.658,29.941,12.133,56.749,34.126,73.202c14.038,10.502,22.628,26.734,22.628,44.266v29.606c0,15.71,12.734,28.444,28.444,28.444
	l0,0c15.71,0,28.444-12.734,28.444-28.444v-29.132c0-17.77,8.678-34.228,22.869-44.922
	C327.975,280.155,341.333,255.419,341.333,227.556z"/>
<path style="fill:#EAA22F;" d="M256,142.245v255.978c15.71,0,28.444-12.734,28.444-28.444v-29.132
	c0-17.77,8.678-34.228,22.869-44.922c20.661-15.569,34.02-40.305,34.02-68.168C341.333,180.429,303.126,142.246,256,142.245z"/>
<path style="fill:#D0D1D3;" d="M227.556,341.333v28.444c0,15.71,12.734,28.444,28.444,28.444l0,0
	c15.71,0,28.444-12.734,28.444-28.444v-28.446L227.556,341.333z"/>
<path style="fill:#A6A8AA;" d="M256,341.332v56.891c15.71,0,28.444-12.734,28.444-28.444v-28.446H256z"/>
<path style="fill:#FEE187;" d="M256,114.209c-2.381,0-4.31-1.929-4.31-4.31V81.455c0-2.381,1.929-4.31,4.31-4.31
	s4.31,1.929,4.31,4.31v28.444C260.31,112.28,258.381,114.209,256,114.209z"/>
<g>
	<path style="fill:#FFC61B;" d="M256,77.145v37.064c2.381,0,4.31-1.929,4.31-4.31V81.455C260.31,79.074,258.381,77.145,256,77.145z"
		/>
	<path style="fill:#FFC61B;" d="M394.559,246.088h-28.444c-2.381,0-4.31-1.929-4.31-4.31s1.929-4.31,4.31-4.31h28.444
		c2.381,0,4.31,1.929,4.31,4.31S396.94,246.088,394.559,246.088z"/>
</g>
<path style="fill:#FEE187;" d="M145.886,246.088h-28.444c-2.381,0-4.31-1.929-4.31-4.31s1.929-4.31,4.31-4.31h28.444
	c2.381,0,4.31,1.929,4.31,4.31S148.266,246.088,145.886,246.088z"/>
<path style="fill:#FFC61B;" d="M353.976,344.064c-1.103,0-2.205-0.421-3.048-1.262l-20.113-20.115c-1.684-1.684-1.684-4.413,0-6.094
	c1.684-1.684,4.411-1.684,6.094,0l20.113,20.115c1.684,1.684,1.684,4.413,0,6.094C356.181,343.643,355.08,344.064,353.976,344.064z"
	/>
<path style="fill:#FEE187;" d="M178.138,168.226c-1.103,0-2.205-0.421-3.048-1.262l-20.113-20.113c-1.684-1.684-1.684-4.411,0-6.094
	s4.411-1.684,6.094,0l20.113,20.113c1.684,1.684,1.684,4.411,0,6.094C180.343,167.805,179.241,168.226,178.138,168.226z"/>
<path style="fill:#FFC61B;" d="M333.862,168.226c-1.103,0-2.205-0.421-3.048-1.262c-1.684-1.684-1.684-4.411,0-6.094l20.115-20.115
	c1.684-1.684,4.411-1.684,6.094,0c1.683,1.684,1.684,4.411,0,6.094l-20.115,20.115C336.067,167.805,334.965,168.226,333.862,168.226
	z"/>
<path style="fill:#FEE187;" d="M158.024,344.064c-1.103,0-2.205-0.421-3.048-1.262c-1.684-1.684-1.684-4.413,0-6.094l20.115-20.113
	c1.684-1.684,4.411-1.684,6.094,0s1.684,4.413,0,6.094l-20.115,20.113C160.228,343.643,159.127,344.064,158.024,344.064z"/>
<path style="fill:#FF5419;" d="M239.616,280.135c-1.588,0-3.191-0.484-4.57-1.495c-3.46-2.527-4.213-7.38-1.686-10.84l23.74-32.487
	h-17.477c-2.92,0-5.594-1.641-6.918-4.246c-1.322-2.605-1.069-5.73,0.655-8.089l32.754-44.822c2.526-3.46,7.378-4.218,10.84-1.686
	c3.46,2.527,4.213,7.38,1.686,10.84l-23.74,32.487h17.477c2.92,0,5.594,1.641,6.918,4.246c1.322,2.605,1.069,5.73-0.655,8.089
	l-32.754,44.822C244.367,279.033,242.009,280.135,239.616,280.135z"/>
<g>
	<path style="fill:#C92F00;" d="M278.64,187.311c2.529-3.46,1.774-8.313-1.686-10.84c-3.462-2.534-8.314-1.774-10.84,1.686
		L256,191.997v26.296L278.64,187.311z"/>
	<path style="fill:#C92F00;" d="M272.377,219.798H256v15.515h1.098L256,236.816v26.296l22.64-30.98
		c1.724-2.358,1.976-5.485,0.655-8.089C277.971,221.439,275.297,219.798,272.377,219.798z"/>
</g>
<g>
</g>
<g>
</g>
<g>
</g>
<g>
</g>
<g>
</g>
<g>
</g>
<g>
</g>
<g>
</g>
<g>
</g>
<g>
</g>
<g>
</g>
<g>
</g>
<g>
</g>
<g>
</g>
<g>
</g>
</svg>
