<?xml version="1.0" encoding="iso-8859-1"?>
<!-- Generator: Adobe Illustrator 19.0.0, SVG Export Plug-In . SVG Version: 6.00 Build 0)  -->
<svg version="1.1" id="Layer_1" xmlns="http://www.w3.org/2000/svg" xmlns:xlink="http://www.w3.org/1999/xlink" x="0px" y="0px"
	 viewBox="0 0 512 512" style="enable-background:new 0 0 512 512;" xml:space="preserve">
<circle style="fill:#273B7A;" cx="256" cy="256" r="256"/>
<path style="fill:#121149;" d="M260.336,511.945c132.52-2.203,240.533-105.084,250.851-235.477L373.351,138.636l-50.231,68.629
	L217.959,102.103l-22.007,28.913l88.493,88.493l-47.881,42.71l-70.971-70.971l-65.531,24.74l93.16,92.584l-53.332,83.22
	L260.336,511.945z"/>
<path style="fill:#FFC61B;" d="M267.685,396.909V241.05H134.72v138.399c0,9.644,7.816,17.46,17.46,17.46h27.503
	c3.624,0,5.808-4.127,3.658-7.046c-2.701-3.667-4.299-8.195-4.299-13.102c0-12.609,10.53-22.757,23.273-22.133
	c11.3,0.552,20.549,9.868,21.028,21.173c0.224,5.287-1.408,10.178-4.298,14.088c-2.145,2.901,0.072,7.02,3.682,7.02L267.685,396.909
	z"/>
<path style="fill:#EAA22F;" d="M201.411,241.05v113.581c0.302,0.003,0.6-0.017,0.905-0.003c11.3,0.553,20.549,9.868,21.028,21.173
	c0.224,5.287-1.408,10.178-4.298,14.088c-2.145,2.901,0.072,7.02,3.681,7.02h44.958V241.05H201.411z"/>
<path style="fill:#FEE187;" d="M223.161,134.025V266.99H361.56c9.644,0,17.46-7.818,17.46-17.46v-27.503
	c0-3.624-4.127-5.808-7.046-3.658c-3.667,2.701-8.195,4.299-13.102,4.299c-12.609,0-22.757-10.528-22.133-23.273
	c0.552-11.3,9.868-20.549,21.173-21.028c5.287-0.224,10.178,1.408,14.088,4.298c2.901,2.145,7.02-0.072,7.02-3.682v-27.498
	c0-9.644-7.816-17.46-17.46-17.46H223.161z"/>
<path style="fill:#FFC61B;" d="M357.912,178.367c5.287-0.224,10.178,1.408,14.088,4.298c2.901,2.145,7.02-0.072,7.02-3.681v-27.5
	c0-9.644-7.816-17.46-17.46-17.46h-49.245V266.99h49.245c9.644,0,17.46-7.816,17.46-17.46v-27.503c0-3.625-4.127-5.808-7.046-3.658
	c-3.667,2.701-8.195,4.299-13.102,4.299c-12.609,0-22.757-10.53-22.133-23.273C337.293,188.094,346.608,178.847,357.912,178.367z"/>
<path style="fill:#EAA22F;" d="M246.574,178.367c5.287-0.224,10.178,1.408,14.088,4.298c2.901,2.145,7.02-0.072,7.02-3.682v-27.498
	c0-9.644-7.818-17.46-17.46-17.46H224.44c-3.393,0-5.598-3.655-3.929-6.608c2.179-3.855,3.236-8.426,2.719-13.279
	c-1.088-10.202-9.314-18.47-19.511-19.596c-13.367-1.474-24.681,8.952-24.681,22.021c0,3.949,1.036,7.651,2.85,10.857
	c1.669,2.951-0.538,6.603-3.929,6.603h-25.783c-9.644,0-17.46,7.818-17.46,17.46v26.591c0,3.55-3.917,5.661-6.906,3.746
	c-3.817-2.445-8.433-3.75-13.376-3.429c-11.104,0.722-20.125,9.914-20.656,21.026c-0.607,12.733,9.537,23.247,22.135,23.247
	c4.425,0,8.54-1.302,11.995-3.539c2.934-1.901,6.809,0.319,6.809,3.815v26.586c0,9.644,7.816,17.46,17.46,17.46h98.045
	c9.644,0,17.46-7.818,17.46-17.46v-27.503c0-3.624-4.127-5.808-7.046-3.658c-3.667,2.701-8.195,4.299-13.102,4.299
	c-12.609,0-22.757-10.528-22.133-23.273C225.954,188.094,235.268,178.847,246.574,178.367z"/>
<path style="fill:#E09112;" d="M246.574,178.367c5.287-0.224,10.178,1.408,14.088,4.298c2.901,2.145,7.02-0.072,7.02-3.681v-27.5
	c0-9.644-7.816-17.46-17.46-17.46H224.44c-3.393,0-5.598-3.655-3.929-6.608c2.179-3.855,3.236-8.425,2.719-13.279
	c-1.088-10.202-9.314-18.47-19.511-19.594c-0.777-0.086-1.546-0.122-2.307-0.129v172.577h48.811c9.644,0,17.46-7.816,17.46-17.46
	v-27.503c0-3.625-4.127-5.808-7.046-3.658c-3.667,2.701-8.195,4.299-13.102,4.299c-12.609,0-22.757-10.53-22.133-23.273
	C225.954,188.094,235.268,178.847,246.574,178.367z"/>
<path style="fill:#FF5419;" d="M334.286,375.801c0.224,5.287-1.408,10.178-4.298,14.088c-2.145,2.901,0.072,7.02,3.682,7.02h27.498
	c9.644,0,17.46-7.818,17.46-17.46v-25.781c0-3.393,3.655-5.598,6.608-3.929c3.855,2.179,8.426,3.236,13.279,2.719
	c10.202-1.088,18.47-9.314,19.596-19.511c1.474-13.367-8.952-24.681-22.021-24.681c-3.949,0-7.651,1.036-10.857,2.85
	c-2.951,1.669-6.603-0.538-6.603-3.929v-25.784c0-9.644-7.818-17.46-17.46-17.46h-26.595c-3.55,0-5.661-3.917-3.746-6.906
	c2.446-3.817,3.75-8.433,3.429-13.376c-0.722-11.104-9.914-20.125-21.026-20.656c-12.733-0.607-23.247,9.537-23.247,22.135
	c0,4.425,1.302,8.54,3.539,11.995c1.901,2.934-0.319,6.809-3.815,6.809h-26.586c-9.644,0-17.46,7.818-17.46,17.46v98.045
	c0,9.644,7.816,17.46,17.46,17.46h27.503c3.624,0,5.808-4.127,3.658-7.046c-2.701-3.667-4.299-8.195-4.299-13.102
	c0-12.609,10.528-22.757,23.273-22.133C324.558,355.181,333.807,364.497,334.286,375.801z"/>
<path style="fill:#C92F00;" d="M396.088,308.265c-3.949,0-7.651,1.038-10.857,2.851c-2.951,1.67-6.603-0.538-6.603-3.929v-25.783
	c0-9.644-7.816-17.46-17.46-17.46h-26.593c-3.55,0-5.661-3.917-3.746-6.906c2.444-3.817,3.75-8.433,3.429-13.377
	c-0.722-11.104-9.912-20.125-21.026-20.656c-0.116-0.005-0.226,0.005-0.341,0.002v131.624c0.124,0.003,0.243-0.007,0.369-0.002
	c11.3,0.553,20.549,9.868,21.028,21.173c0.224,5.287-1.408,10.178-4.298,14.088c-2.145,2.901,0.072,7.02,3.681,7.02h27.498
	c9.644,0,17.46-7.816,17.46-17.46V353.67c0-3.393,3.655-5.599,6.608-3.929c3.855,2.179,8.426,3.236,13.279,2.719
	c10.202-1.088,18.47-9.314,19.596-19.511C419.583,319.578,409.157,308.265,396.088,308.265z"/>
<g>
</g>
<g>
</g>
<g>
</g>
<g>
</g>
<g>
</g>
<g>
</g>
<g>
</g>
<g>
</g>
<g>
</g>
<g>
</g>
<g>
</g>
<g>
</g>
<g>
</g>
<g>
</g>
<g>
</g>
</svg>
