<?xml version="1.0" encoding="iso-8859-1"?>
<!-- Generator: Adobe Illustrator 19.0.0, SVG Export Plug-In . SVG Version: 6.00 Build 0)  -->
<svg version="1.1" id="Layer_1" xmlns="http://www.w3.org/2000/svg" xmlns:xlink="http://www.w3.org/1999/xlink" x="0px" y="0px"
	 viewBox="0 0 512 512" style="enable-background:new 0 0 512 512;" xml:space="preserve">
<circle style="fill:#273B7A;" cx="256" cy="256" r="256"/>
<path style="fill:#121149;" d="M304.388,507.413c116.433-22.276,204.853-123.406,207.539-245.686L381.942,131.741l-122.206,83.747
	L131.541,315.559l73.902,73.902l-13.534,5.472L304.388,507.413z"/>
<rect x="205.714" y="305.7" style="fill:#A6A8AA;" width="100.573" height="65.077"/>
<rect x="256" y="305.7" style="fill:#808183;" width="50.286" height="65.077"/>
<path style="fill:#D0D1D3;" d="M368.078,320.488H143.922c-9.983,0-18.077-8.094-18.077-18.077V143.332
	c0-9.983,8.094-18.077,18.077-18.077h224.156c9.983,0,18.077,8.094,18.077,18.077v159.079
	C386.155,312.394,378.061,320.488,368.078,320.488z"/>
<path style="fill:#A6A8AA;" d="M368.078,125.256H256v195.232h112.078c9.983,0,18.077-8.094,18.077-18.077V143.332
	C386.155,133.349,378.061,125.256,368.078,125.256z"/>
<rect x="140.636" y="141.033" style="fill:#71E2EF;" width="230.728" height="163.685"/>
<rect x="256" y="141.033" style="fill:#38C6D9;" width="115.364" height="163.685"/>
<rect x="191.905" y="356.469" style="fill:#D0D1D3;" width="128.19" height="38.455"/>
<rect x="256" y="356.469" style="fill:#A6A8AA;" width="64.095" height="38.455"/>
<rect x="155.152" y="180.2" style="fill:#FFFFFF;" width="201.697" height="21.333"/>
<rect x="256" y="180.2" style="fill:#D0D1D3;" width="100.848" height="21.333"/>
<rect x="155.152" y="180.2" style="fill:#D35933;" width="57.628" height="21.333"/>
<rect x="155.152" y="244.208" style="fill:#FFFFFF;" width="201.697" height="21.333"/>
<rect x="212.782" y="244.208" style="fill:#FFC61B;" width="57.628" height="21.333"/>
<rect x="241.588" y="244.208" style="fill:#FF5419;" width="115.255" height="21.333"/>
<rect x="256" y="244.208" style="fill:#C92F00;" width="100.848" height="21.333"/>
<rect x="155.152" y="212.851" style="fill:#FFFFFF;" width="201.697" height="21.333"/>
<rect x="241.588" y="212.851" style="fill:#FF314F;" width="57.628" height="21.333"/>
<rect x="256" y="212.851" style="fill:#A30F44;" width="43.218" height="21.333"/>
<rect x="212.782" y="212.851" style="fill:#FFC61B;" width="28.813" height="21.333"/>
<g>
</g>
<g>
</g>
<g>
</g>
<g>
</g>
<g>
</g>
<g>
</g>
<g>
</g>
<g>
</g>
<g>
</g>
<g>
</g>
<g>
</g>
<g>
</g>
<g>
</g>
<g>
</g>
<g>
</g>
</svg>
