<?xml version="1.0" encoding="iso-8859-1"?>
<!-- Generator: Adobe Illustrator 19.0.0, SVG Export Plug-In . SVG Version: 6.00 Build 0)  -->
<svg version="1.1" id="Layer_1" xmlns="http://www.w3.org/2000/svg" xmlns:xlink="http://www.w3.org/1999/xlink" x="0px" y="0px"
	 viewBox="0 0 512 512" style="enable-background:new 0 0 512 512;" xml:space="preserve">
<circle style="fill:#E09112;" cx="256" cy="256" r="256"/>
<path style="fill:#FF5419;" d="M266.936,511.752c132.691-5.579,239.251-112.147,244.817-244.841L359.946,115.103l-20.016,19.373
	l-40.767-40.931l-12.931,5.675l-16.26-16.341l-29.918,8.918l70.811,70.811L215.2,262.465l-18.22,31.06l-45.658,102.731
	L266.936,511.752z"/>
<path style="fill:#386895;" d="M355.95,398.222H156.05c-3.71,0-6.716-3.006-6.716-6.716V120.494c0-3.71,3.007-6.716,6.716-6.716
	H355.95c3.71,0,6.716,3.006,6.716,6.716v271.012C362.667,395.216,359.66,398.222,355.95,398.222z"/>
<path style="fill:#273B7A;" d="M355.95,113.778H256v284.444h99.95c3.71,0,6.716-3.006,6.716-6.716V120.494
	C362.667,116.784,359.66,113.778,355.95,113.778z"/>
<rect x="160.323" y="124.121" style="fill:#FFFFFF;" width="191.354" height="260.31"/>
<rect x="256" y="124.121" style="fill:#D0D1D3;" width="95.677" height="260.31"/>
<path style="fill:#FFC61B;" d="M274.341,90.936c-2.108-8.175-9.509-14.222-18.341-14.222s-16.234,6.047-18.341,14.222h-18.579
	c-4.841,0-8.764,3.924-8.764,8.763v28.157c0,4.841,3.924,8.764,8.764,8.764h73.84c4.841,0,8.763-3.924,8.763-8.764V99.699
	c0-4.841-3.924-8.763-8.763-8.763H274.341z M256,101.71c-3.332,0-6.034-2.701-6.034-6.034s2.701-6.034,6.034-6.034
	s6.034,2.701,6.034,6.034S259.332,101.71,256,101.71z"/>
<path style="fill:#EAA22F;" d="M292.919,90.936h-18.579c-2.108-8.175-9.509-14.222-18.341-14.222v12.929
	c3.332,0,6.034,2.701,6.034,6.034s-2.701,6.034-6.034,6.034v34.909h36.919c4.841,0,8.763-3.924,8.763-8.763V99.699
	C301.684,94.86,297.76,90.936,292.919,90.936z"/>
<g>
	<rect x="303.838" y="164.202" style="fill:#FFFFFF;" width="28.444" height="28.444"/>
	<rect x="303.838" y="319.354" style="fill:#FFFFFF;" width="28.444" height="28.444"/>
	<rect x="303.838" y="267.636" style="fill:#FFFFFF;" width="28.444" height="28.444"/>
	<rect x="303.838" y="215.919" style="fill:#FFFFFF;" width="28.444" height="28.444"/>
</g>
<g>
	<rect x="170.667" y="174.011" style="fill:#808183;" width="113.778" height="8.814"/>
	<rect x="170.667" y="329.163" style="fill:#808183;" width="113.778" height="8.814"/>
	<rect x="170.667" y="277.445" style="fill:#808183;" width="113.778" height="8.814"/>
	<rect x="170.667" y="225.728" style="fill:#808183;" width="113.778" height="8.814"/>
</g>
<g>
	<rect x="256" y="174.011" style="fill:#59595B;" width="28.444" height="8.814"/>
	<rect x="256" y="329.163" style="fill:#59595B;" width="28.444" height="8.814"/>
	<rect x="256" y="277.445" style="fill:#59595B;" width="28.444" height="8.814"/>
	<rect x="256" y="225.728" style="fill:#59595B;" width="28.444" height="8.814"/>
</g>
<g>
	<path style="fill:#B54324;" d="M312.889,191.785c-0.079,0-0.159-0.002-0.24-0.007c-1.224-0.067-2.36-0.653-3.125-1.612
		l-10.343-12.929c-1.486-1.858-1.186-4.57,0.674-6.058c1.86-1.489,4.568-1.184,6.058,0.674l7.335,9.168l25.04-25.038
		c1.684-1.684,4.411-1.684,6.094,0s1.684,4.411,0,6.094l-28.444,28.444C315.127,191.333,314.03,191.785,312.889,191.785z"/>
	<path style="fill:#B54324;" d="M312.889,243.071c-0.079,0-0.159-0.002-0.24-0.007c-1.224-0.067-2.36-0.653-3.125-1.612
		l-10.343-12.929c-1.486-1.858-1.186-4.57,0.674-6.058c1.86-1.489,4.568-1.186,6.058,0.674l7.335,9.168l25.04-25.038
		c1.684-1.684,4.411-1.684,6.094,0s1.684,4.411,0,6.094l-28.444,28.444C315.127,242.619,314.03,243.071,312.889,243.071z"/>
	<path style="fill:#B54324;" d="M312.889,294.357c-0.079,0-0.159-0.002-0.24-0.007c-1.224-0.067-2.36-0.653-3.125-1.612
		l-10.343-12.929c-1.486-1.858-1.186-4.57,0.674-6.058c1.86-1.488,4.568-1.184,6.058,0.674l7.335,9.168l25.04-25.038
		c1.684-1.684,4.411-1.684,6.094,0s1.684,4.411,0,6.094l-28.444,28.444C315.127,293.905,314.03,294.357,312.889,294.357z"/>
	<path style="fill:#B54324;" d="M312.889,345.643c-0.079,0-0.159-0.002-0.24-0.007c-1.224-0.067-2.36-0.653-3.125-1.612
		l-10.343-12.929c-1.486-1.858-1.186-4.57,0.674-6.058c1.86-1.489,4.568-1.184,6.058,0.674l7.335,9.168l25.04-25.038
		c1.684-1.684,4.411-1.684,6.094,0s1.684,4.411,0,6.094l-28.444,28.444C315.127,345.191,314.03,345.643,312.889,345.643z"/>
</g>
<g>
</g>
<g>
</g>
<g>
</g>
<g>
</g>
<g>
</g>
<g>
</g>
<g>
</g>
<g>
</g>
<g>
</g>
<g>
</g>
<g>
</g>
<g>
</g>
<g>
</g>
<g>
</g>
<g>
</g>
</svg>
