<?xml version="1.0" encoding="iso-8859-1"?>
<!-- Generator: Adobe Illustrator 19.0.0, SVG Export Plug-In . SVG Version: 6.00 Build 0)  -->
<svg version="1.1" id="Layer_1" xmlns="http://www.w3.org/2000/svg" xmlns:xlink="http://www.w3.org/1999/xlink" x="0px" y="0px"
	 viewBox="0 0 512 512" style="enable-background:new 0 0 512 512;" xml:space="preserve">
<circle style="fill:#273B7A;" cx="256" cy="256" r="256"/>
<path style="fill:#121149;" d="M278.621,510.993c125.743-11.012,225.406-112.918,232.907-239.635L337.732,97.563l-45.809,13.2
	l-24.766-24.766l-12.352,16.208l-18.825,23.928l-37.728,26.558l32.851,32.851l-23.592,38.062l32.465,32.465l-0.741,0.31
	l62.204,61.152l-5.746,5.746l-85.013-85.013l-6.834,12.5l-26.172-26.172l-23.402,32.801l-59.659,50.26l35.699,35.699l-6.956,12.378
	L278.621,510.993z"/>
<path style="fill:#E09112;" d="M228.371,286.341c-1.424-9.371-4.949-18.051-10.073-25.552l7.454-7.454l-15.07-15.07l-7.242,7.242
	c-7.497-5.446-16.258-9.247-25.764-10.893v-10.019h-21.314v10.019c-9.504,1.646-18.265,5.448-25.764,10.893l-7.242-7.242
	l-15.07,15.07l7.454,7.454c-5.123,7.501-8.647,16.181-10.073,25.552H94.615v21.314h11.498c1.755,9.023,5.463,17.342,10.669,24.509
	l-8.495,8.495l15.07,15.07l8.707-8.707c7.165,4.892,15.408,8.311,24.298,9.85V369.4h21.314v-12.528
	c8.89-1.539,17.134-4.958,24.298-9.85l8.707,8.707l15.07-15.07l-8.495-8.495c5.204-7.168,8.914-15.488,10.669-24.51h11.498v-21.313
	H228.371z M167.021,326.775c-17.137,0-31.03-13.893-31.03-31.03s13.893-31.03,31.03-31.03s31.03,13.893,31.03,31.03
	S184.158,326.775,167.021,326.775z"/>
<path style="fill:#FF5419;" d="M239.425,307.653v-21.314h-11.052c-1.424-9.371-4.949-18.051-10.073-25.552l7.452-7.452l-15.07-15.07
	l-7.242,7.242c-7.497-5.446-16.258-9.247-25.764-10.893v-10.019h-11.319v40.153c0.222-0.005,0.44-0.034,0.664-0.034
	c17.137,0,31.03,13.893,31.03,31.03s-13.893,31.03-31.03,31.03c-0.224,0-0.441-0.029-0.664-0.034V369.4h11.321v-12.528
	c8.89-1.539,17.134-4.958,24.298-9.85l8.707,8.707l15.07-15.07l-8.495-8.495c5.204-7.168,8.914-15.488,10.669-24.51L239.425,307.653
	z"/>
<path style="fill:#FFC61B;" d="M360.345,341.525c-1.153-7.587-4.006-14.612-8.154-20.685l6.034-6.034l-12.2-12.2l-5.863,5.863
	c-6.07-4.408-13.162-7.485-20.856-8.818v-8.111h-17.255v8.111c-7.694,1.333-14.786,4.41-20.856,8.818l-5.863-5.863l-12.2,12.2
	l6.034,6.034c-4.148,6.072-7.001,13.098-8.154,20.685h-8.947v17.255h9.307c1.421,7.304,4.424,14.039,8.637,19.84l-6.877,6.877
	l12.2,12.2l7.049-7.049c5.799,3.962,12.472,6.728,19.67,7.975v10.142h17.255v-10.142c7.197-1.246,13.871-4.013,19.67-7.975
	l7.049,7.049l12.2-12.2l-6.877-6.877c4.213-5.803,7.216-12.536,8.637-19.84h9.307v-17.255H360.345z M310.679,375.856
	c-14.757,0-26.721-11.964-26.721-26.721c0-14.757,11.964-26.721,26.721-26.721s26.721,11.964,26.721,26.721
	C337.399,363.894,325.437,375.856,310.679,375.856z"/>
<path style="fill:#EAA22F;" d="M360.345,341.525c-1.153-7.587-4.006-14.612-8.154-20.685l6.034-6.034l-12.2-12.2l-5.863,5.863
	c-6.07-4.408-13.162-7.485-20.856-8.818v-8.111h-8.716v30.882c0.031,0,0.059-0.005,0.09-0.005c14.757,0,26.721,11.964,26.721,26.721
	c0,14.757-11.964,26.721-26.721,26.721c-0.031,0-0.059-0.003-0.09-0.005v32.911h8.716v-10.142c7.197-1.246,13.871-4.013,19.67-7.975
	l7.049,7.049l12.2-12.2l-6.877-6.877c4.213-5.803,7.216-12.536,8.637-19.84h9.307v-17.255H360.345z"/>
<path style="fill:#FF7F4F;" d="M365.766,195.637c3.089-11.702,3.368-23.659,1.176-35.047l12.516-4.948l-10.004-25.309l-12.16,4.806
	c-6.018-10.187-14.352-19.089-24.65-25.843l5.087-11.738l-24.969-10.823l-5.087,11.738c-11.971-2.898-24.164-2.893-35.712-0.321
	l-4.806-12.16l-25.309,10.002l4.948,12.516c-9.811,6.185-18.346,14.564-24.773,24.819l-12.948-5.611l-10.823,24.969l13.469,5.839
	c-2.526,11.461-2.405,23.09,0.053,34.13l-14.265,5.639l10.004,25.307l14.622-5.779c5.908,9.369,13.829,17.56,23.462,23.878
	l-6.361,14.676l24.969,10.823l6.361-14.676c11.197,2.71,22.59,2.891,33.466,0.798l5.779,14.622l25.309-10.004l-5.639-14.265
	c9.737-5.754,18.306-13.617,24.943-23.295l13.469,5.839l10.823-24.969L365.766,195.637z M267.991,224.24
	c-26.921-11.669-39.284-42.951-27.615-69.87s42.953-39.281,69.873-27.614c26.921,11.669,39.284,42.951,27.615,69.87
	C326.196,223.546,294.912,235.91,267.991,224.24z"/>
<path style="fill:#D35933;" d="M366.942,160.59l12.516-4.948l-10.002-25.309l-12.16,4.806c-6.018-10.187-14.352-19.089-24.65-25.841
	l5.087-11.738l-24.969-10.823l-5.087,11.738c-6.096-1.476-12.25-2.189-18.348-2.205v26.096c6.994,0.024,14.096,1.433,20.92,4.389
	c26.921,11.669,39.284,42.951,27.615,69.87c-8.652,19.959-28.089,31.904-48.537,31.996v26.093c4.96-0.012,9.883-0.465,14.703-1.395
	l5.779,14.622l25.309-10.002l-5.639-14.265c9.737-5.754,18.306-13.615,24.943-23.295l13.469,5.839l10.823-24.969l-12.948-5.611
	C368.857,183.937,369.135,171.979,366.942,160.59z"/>
<g>
</g>
<g>
</g>
<g>
</g>
<g>
</g>
<g>
</g>
<g>
</g>
<g>
</g>
<g>
</g>
<g>
</g>
<g>
</g>
<g>
</g>
<g>
</g>
<g>
</g>
<g>
</g>
<g>
</g>
</svg>
