<?xml version="1.0" encoding="iso-8859-1"?>
<!-- Generator: Adobe Illustrator 19.0.0, SVG Export Plug-In . SVG Version: 6.00 Build 0)  -->
<svg version="1.1" id="Layer_1" xmlns="http://www.w3.org/2000/svg" xmlns:xlink="http://www.w3.org/1999/xlink" x="0px" y="0px"
	 viewBox="0 0 512.002 512.002" style="enable-background:new 0 0 512.002 512.002;" xml:space="preserve">
<circle style="fill:#FFC61B;" cx="256.001" cy="256" r="256"/>
<path style="fill:#EAA22F;" d="M508.265,299.727l-74.476-74.476l-6.411,6.425l-64.34-64.34l-6.984,8.142l-59.759-59.759
	l-123.363,57.534h-18.422v117.067l-89.229,53.557L232.306,510.9c7.804,0.717,15.705,1.102,23.697,1.102
	C382.477,512,487.516,420.278,508.265,299.727z"/>
<path style="fill:#FFFFFF;" d="M154.29,165.207c-4.284,0-7.758,3.474-7.758,7.758v56.889c0,4.284,3.474,7.758,7.758,7.758
	c4.284,0,7.758-3.474,7.758-7.758v-49.131h93.953v-15.515L154.29,165.207L154.29,165.207z"/>
<path style="fill:#D0D1D3;" d="M357.711,165.207h-101.71v15.515h93.953v49.131c0,4.284,3.474,7.758,7.758,7.758
	s7.758-3.474,7.758-7.758v-56.889C365.469,168.681,361.995,165.207,357.711,165.207z"/>
<path style="fill:#808183;" d="M425.054,338.539H289.932c-6.018,0-10.897-4.879-10.897-10.897v-95.894
	c0-6.018,4.879-10.897,10.897-10.897h135.121c6.018,0,10.897,4.879,10.897,10.897v95.894
	C435.951,333.66,431.072,338.539,425.054,338.539z"/>
<path style="fill:#59595B;" d="M425.054,220.853h-67.917v117.688h67.917c6.018,0,10.897-4.879,10.897-10.897V231.75
	C435.951,225.732,431.072,220.853,425.054,220.853z"/>
<rect x="287.945" y="230.366" style="fill:#71E2EF;" width="139.085" height="98.659"/>
<rect x="357.142" y="230.366" style="fill:#38C6D9;" width="69.897" height="98.659"/>
<path style="fill:#59595B;" d="M274.693,346.989h165.598c4.536,0,8.213-3.677,8.213-8.213v-8.949c0-4.536-3.677-8.213-8.213-8.213
	H274.693c-4.536,0-8.213,3.677-8.213,8.213v8.949C266.48,343.312,270.158,346.989,274.693,346.989z"/>
<path style="fill:#272525;" d="M440.292,321.617h-83.154v25.372h83.154c4.536,0,8.213-3.677,8.213-8.211v-8.949
	C448.504,325.292,444.827,321.617,440.292,321.617z"/>
<path style="fill:#808183;" d="M222.073,338.539H86.95c-6.018,0-10.897-4.879-10.897-10.897v-95.894
	c0-6.018,4.879-10.897,10.897-10.897h135.121c6.018,0,10.897,4.879,10.897,10.897v95.894
	C232.969,333.66,228.091,338.539,222.073,338.539z"/>
<path style="fill:#59595B;" d="M222.073,220.853h-68.356v117.688h68.356c6.018,0,10.897-4.879,10.897-10.897V231.75
	C232.969,225.732,228.091,220.853,222.073,220.853z"/>
<rect x="84.972" y="230.366" style="fill:#71E2EF;" width="139.085" height="98.659"/>
<rect x="153.722" y="230.366" style="fill:#38C6D9;" width="70.337" height="98.659"/>
<path style="fill:#59595B;" d="M71.712,346.989H237.31c4.536,0,8.213-3.677,8.213-8.213v-8.949c0-4.536-3.677-8.213-8.213-8.213
	H71.712c-4.536,0-8.213,3.677-8.213,8.213v8.949C63.499,343.312,67.176,346.989,71.712,346.989z"/>
<path style="fill:#272525;" d="M237.31,321.617h-83.594v25.372h83.594c4.536,0,8.213-3.677,8.213-8.211v-8.949
	C245.523,325.292,241.846,321.617,237.31,321.617z"/>
<path style="fill:#386895;" d="M305.137,192.602c13.479,0,24.405-10.928,24.405-24.405c0-12.14-8.873-22.181-20.482-24.062
	c-1.648-23.497-21.218-42.051-45.134-42.051c-15.42,0-29.034,7.716-37.204,19.494c-2.143-0.893-4.493-1.389-6.959-1.389
	c-9.999,0-18.104,8.106-18.104,18.104c0,0.395,0.034,0.781,0.059,1.171c-11.147,3.382-19.259,13.734-19.259,25.986
	c0,14.998,12.159,27.157,27.155,27.157h95.523V192.602z"/>
<path style="fill:#273B7A;" d="M309.061,144.132c-1.648-23.497-21.218-42.051-45.134-42.051c-2.705,0-5.351,0.25-7.925,0.705V192.6
	h49.135c13.479,0,24.405-10.928,24.405-24.405C329.543,156.055,320.67,146.013,309.061,144.132z"/>
<g>
</g>
<g>
</g>
<g>
</g>
<g>
</g>
<g>
</g>
<g>
</g>
<g>
</g>
<g>
</g>
<g>
</g>
<g>
</g>
<g>
</g>
<g>
</g>
<g>
</g>
<g>
</g>
<g>
</g>
</svg>
