<?xml version="1.0" encoding="UTF-8" standalone="no"?>
<svg id="Layer_3_copy" viewBox="0 0 1400 550" xmlns="http://www.w3.org/2000/svg" xmlns:xlink="http://www.w3.org/1999/xlink" data-name="Layer 3 copy">
    <defs>
        <style>.cls-1,.cls-4,.cls-5,.cls-6{fill:none;}.cls-2{clip-path:url(#clip-path);}.cls-10,.cls-3,.cls-9{fill:#485668;}.cls-4,.cls-5,.cls-6{stroke:#fff;stroke-miterlimit:10;}.cls-4{stroke-width:5px;}.cls-5{stroke-width:3px;}.cls-6{stroke-width:2px;}.cls-7,.cls-8{fill:#fff;}.cls-7{opacity:0.3;}.cls-9{opacity:0.73;}.cls-10{opacity:0.6;}</style>
        <clipPath id="clip-path">
            <rect width="1400" class="cls-1" height="550"/>
        </clipPath>
    </defs>
    <title>topbanner</title>
    <g class="cls-2">
        <rect y="-75.18" x="-41.359" height="700.36" class="cls-3" width="1482.7"/>
        <circle cy="441.72" cx="454.33" r="68.26" class="cls-4"/>
        <circle cy="312.82" cx="816.11" r="80.455" class="cls-4"/>
        <circle cy="268.06" cx="1024.4" r="35.698" class="cls-4"/>
        <circle cy="378.31" cx="1299.3" r="54.793" class="cls-4"/>
        <circle cy="450.48" cx="668.04" r="64.016" class="cls-4"/>
        <circle cy="475.21" cx="1080.1" r="88.746" class="cls-4"/>
        <circle cy="252.77" cx="584.61" r="47.729" class="cls-4"/>
        <circle cy="480.83" cx="249.01" r="37.307" class="cls-5"/>
        <circle cy="427.02" cx="111.06" r="16.501" class="cls-4"/>
        <circle cy="119.45" cx="176" r="16.501" class="cls-4"/>
        <circle cy="145.89" cx="904.5" r="21.974" class="cls-6"/>
        <circle cy="263.73" cx="1228" r="20.917" class="cls-6"/>
        <circle cy="162.39" cx="386.07" r="40.947" class="cls-4"/>
        <circle cy="322.09" cx="231.94" r="34.666" class="cls-5"/>
        <circle cy="83.302" cx="766.32" r="53.614" class="cls-4"/>
        <circle cy="135.95" cx="1080.1" r="44.953" class="cls-4"/>
        <line y1="227.91" x2="421.88" x1="543.86" y2="176.33" class="cls-6"/>
        <line y1="375.64" x2="397.06" x1="437.17" y2="199.21" class="cls-4"/>
        <line y1="386.46" x2="564.06" x1="494.4" y2="295.86" class="cls-4"/>
        <line y1="389.7" x2="612.6" x1="647.9" y2="291.43" class="cls-4"/>
        <line y1="480.83" x2="670.97" x1="510.28" y2="563.95" class="cls-4"/>
        <line y1="410.52" x2="262.71" x1="393.61" y2="338.05" class="cls-5"/>
        <line y1="480.83" x2="388.51" x1="286.32" y2="459.86" class="cls-4"/>
        <line y1="433.1" x2="213.64" x1="127.56" y2="468.97" class="cls-6"/>
        <line y1="119.12" x2="617.71" x1="726.43" y2="218.4" class="cls-4"/>
        <line y1="234.44" x2="778.75" x1="797.86" y2="136.92" class="cls-4"/>
        <line y1="243.9" x2="894.25" x1="857.65" y2="165.33" class="cls-6"/>
        <line y1="287.43" x2="988.7" x1="892.47" y2="275" class="cls-4"/>
        <line y1="235.81" x2="1065.1" x1="1039.7" y2="178.33" class="cls-4"/>
        <line y1="388.72" x2="1032.9" x1="1060.1" y2="302.72" class="cls-4"/>
        <line y1="403.36" x2="1216.8" x1="1132.2" y2="281.21" class="cls-6"/>
        <line y1="433.1" x2="1262" x1="1288" y2="550" class="cls-5"/>
        <line y1="249.89" x2="1118" x1="1212.4" y2="168.76" class="cls-5"/>
        <line y1="410.52" x2="1163.2" x1="1255" y2="447.08" class="cls-4"/>
        <line y1="391.37" x2="871.03" x1="833.58" y2="550" class="cls-4"/>
        <line y1="300.5" x2="913.26" x1="1009.5" y2="550" class="cls-4"/>
        <circle cy="441.72" cx="454.33" r="55.261" class="cls-7"/>
        <circle cy="312.82" cx="816.11" r="65.976" class="cls-7"/>
        <circle cy="268.06" cx="1024.4" r="25.243" class="cls-7"/>
        <circle cy="378.31" cx="1299.3" r="44.718" class="cls-7"/>
        <circle cy="450.48" cx="668.04" r="51.957" class="cls-7"/>
        <circle cy="475.21" cx="1080.1" r="72.729" class="cls-7"/>
        <circle cy="252.77" cx="584.61" r="37.634" class="cls-7"/>
        <circle cy="480.83" cx="249.01" r="29.107" class="cls-7"/>
        <circle cy="427.02" cx="111.06" r="16.501" class="cls-7"/>
        <circle cy="119.45" cx="176" r="16.501" class="cls-7"/>
        <circle cy="145.89" cx="904.5" r="16.501" class="cls-7"/>
        <circle cy="263.73" cx="1228" r="11.668" class="cls-7"/>
        <circle cy="162.39" cx="386.07" r="31.045" class="cls-7"/>
        <circle cy="322.09" cx="231.94" r="27.148" class="cls-7"/>
        <circle cy="83.302" cx="766.32" r="38.139" class="cls-7"/>
        <circle cy="135.95" cx="1080.1" r="32.974" class="cls-7"/>
        <path class="cls-8" d="m217.1 310.96v22.26h29.679v-22.26h-29.68zm8.1901 9.8051-5.7169 7.0636v-11.7zm-5.1208-7.3319h23.539l-11.769 9.538zm7.0413 8.8888 4.7288 3.8323 4.7362-3.8385 6.9399 8.43h-23.23zm11.387-1.5631 5.7082-4.6262v11.56z"/>
        <path class="cls-8" d="m248.98 496.3a15.215 15.215 0 1 1 15.215 -15.215 15.232 15.232 0 0 1 -15.22 15.22zm0-27.844a12.63 12.63 0 1 0 12.63 12.629 12.644 12.644 0 0 0 -12.63 -12.63z"/>
        <path class="cls-8" d="m232.24 467.23l3.4657 7.9893 6.3808-7.2572-8.5058-2.2857a1.1392 1.1392 0 0 0 -1.34 1.55z"/>
        <path class="cls-8" d="m263.95 465.68l-8.2274 2.8548 6.7565 6.9088 2.9192-8.3097a1.1392 1.1392 0 0 0 -1.45 -1.45z"/>
        <circle cy="481.12" cx="240.75" r="1.9478" class="cls-8"/>
        <circle cy="481.12" cx="256.88" r="1.9478" class="cls-8"/>
        <path class="cls-8" d="m235.12 484.09h-6.8976a1.2924 1.2924 0 1 1 0 -2.5849h6.9a1.2924 1.2924 0 0 1 0 2.58z"/>
        <path class="cls-8" d="m235.59 488.36h-6.9a1.2924 1.2924 0 1 1 0 -2.5849h6.8976a1.2924 1.2924 0 0 1 0 2.58z"/>
        <path class="cls-8" d="m269.8 484.09h-6.8976a1.2924 1.2924 0 0 1 0 -2.5849h6.8976a1.2924 1.2924 0 0 1 0 2.58z"/>
        <path class="cls-8" d="m268.92 488.36h-6.8978a1.2924 1.2924 0 0 1 0 -2.5849h6.8978a1.2924 1.2924 0 1 1 0 2.58z"/>
        <path class="cls-8" d="m480.92 415.18a3.1891 3.1891 0 0 0 -3.19 -3.19h-46.79a3.1891 3.1891 0 0 0 -3.19 3.19v31.368h53.17v-31.37zm-5.3166 26.051h-42.53v-23.92h42.533v23.93zm5.3166 7.9749h-53.17c-0.52368 0.98889-5.3166 12.18-5.3166 13.286a2.6641 2.6641 0 0 0 2.6636 2.6636h58.48a2.6641 2.6641 0 0 0 2.6636 -2.6636c0-1.1-4.79-12.29-5.31-13.28zm-32.508 13.291 1.2414-2.6583h9.3652l1.2414 2.6583h-11.848z"/>
        <path class="cls-8" d="m797.8 290.76a7.3512 7.3512 0 0 0 -7.3509 7.3509v46.597c-0.00368 8.1338 9.1996 12.21 22.071 12.21 12.857 0 22.034-4.065 22.034-12.21v-46.6a7.3512 7.3512 0 0 0 -7.3509 -7.3509h-29.41zm14.702 58.807a3.6754 3.6754 0 1 1 3.6754 -3.6754 3.6768 3.6768 0 0 1 -3.68 3.68zm14.702-14.702h-29.4v-29.404h29.404v29.404zm0-50.31a13.565 13.565 0 0 1 13.57 13.55h5.7116a19.262 19.262 0 0 0 -19.274 -19.256v5.708zm0-9.9899a23.541 23.541 0 0 1 23.552 23.541h5.8513a29.395 29.395 0 0 0 -29.404 -29.396v5.855z"/>
        <path class="cls-8" d="m1086.6 114.21a3.0362 3.0362 0 0 0 -2.7892 -1.8366h-7.6a3.0362 3.0362 0 0 0 -2.7892 1.8366l-2.5338 5.8911h18.281z"/>
        <path class="cls-8" d="m1073.4 159.62a3.0362 3.0362 0 0 0 2.7892 1.8366h7.6347a3.0362 3.0362 0 0 0 2.7892 -1.8366l2.5338-5.8911h-18.2z"/>
        <path class="cls-8" d="m1093 129.5a1.3816 1.3816 0 0 0 -0.55627 0.11768v-3.0512a4.2128 4.2128 0 0 0 -4.2004 -4.2003h-16.5a4.2127 4.2127 0 0 0 -4.2004 4.2003v20.943a4.2127 4.2127 0 0 0 4.2004 4.2004h16.575a4.2128 4.2128 0 0 0 4.2004 -4.2004v-12.658a1.3816 1.3816 0 0 0 0.55627 0.11768 1.4018 1.4018 0 0 0 1.3977 -1.3977v-2.68a1.4018 1.4018 0 0 0 -1.5 -1.39zm-12.7 11.4l-7.6973-3.5469 0.83789-1.8164 6.3652 2.9336 6.8018-7.4731 1.4785 1.3457z"/>
        <path class="cls-8" d="m591.83 227.78c-8.0132-2.1934-17.741 7.8368-21.729 22.403s-0.72334 28.153 7.2899 30.346 17.741-7.8368 21.729-22.403 0.73-28.15-7.29-30.34zm-16.61 29.06l-4.47-1.48a1.0658 1.0658 0 0 1 -0.67562 -1.3424l3.4371-10.403a1.0658 1.0658 0 0 1 1.3423 -0.67563l4.4718 1.4774a1.0658 1.0658 0 0 1 0.67563 1.3424l-3.4372 10.403a1.0657 1.0657 0 0 1 -1.34 0.68zm21.214 0.733c-2.9737 10.864-9.4262 18.167-15.334 16.298-3.7372-1.1824-5.0766-10.695-2.1029-21.559s9.9333-18.558 13.231-17.395c4.13 1.45 7.19 11.79 4.22 22.65z"/>
        <path class="cls-8" d="m386.07 140.71c-7.5852 0-14.455 6.1488-14.455 13.736 0 7.5852 6.268 16.641 14.455 29.629 8.1869-12.988 14.455-22.044 14.455-29.629 0.01-7.6-6.86-13.74-14.45-13.74zm0 19.876a5.4206 5.4206 0 1 1 5.4206 -5.4206 5.4203 5.4203 0 0 1 -5.42 5.41z"/>
        <path class="cls-8" d="m1115.5 474.28v39.385h-23.631v-23.631h-23.631v23.631h-23.631v-39.385h-11.816l47.262-47.262 47.262 47.262h-11.816zm-3.9385-23.265v-20.06h-11.816v8.2433z"/>
        <path class="cls-8" d="m1309.9 349.3v3.6716c8.7246 0 14.778 5.9594 14.778 14.778h3.6716c0-10.92-7.8-18.45-18.5-18.45zm0 6.951v3.7015c4.9123 0 7.7974 2.8644 7.7974 7.7974h3.7015c0-6.96-4.5-11.5-11.5-11.5zm-32.288 48.399h5.7656c1.8335-1.4783 4.0982-3.6508 6.9188-3.6508 2.8252 0 5.0807 2.1748 6.9188 3.6508h5.7656l-12.684-10.955zm37.477-14.684c0 5.9663-10.696 6.1831-17.867 3.268-12.481-5.0761-17.581-17.873-14.273-27.698 1.5337-4.5572 3.3764-7.011 11.561-1.6836a49.49 49.49 0 0 1 6.2753 4.9677l-3.1365 2.1079c-14.091-12.797-12.767-3.7177-1.792 8.3071 10.696 11.718 21.298 15.729 10.523 1.31l2.1886-3.1872c2.2 2.97 6.5 8.88 6.5 12.59zm-1.8773-22.705a2.7228 2.7228 0 0 1 -3.8953 2.4585l-6.9903 10.309a24.407 24.407 0 0 1 -4.6517 -4.6632l10.378-6.8819a2.6352 2.6352 0 0 1 -0.31135 -1.25 2.7352 2.7352 0 1 1 5.6 0.02z"/>
        <path class="cls-8" d="m699.2 437.89l-6.241-16.116c-1.1672-3.0851-3.7178-5.7104-8.545-5.7324h-32.8a8.5405 8.5405 0 0 0 -8.5442 5.7324l-6.2426 16.116a8.7614 8.7614 0 0 0 -6.857 8.749v20.52h6.08v6.5502c-0.01523 8.0752 11.412 7.9793 11.409 0v-6.5502h41.087v6.5502c0.02512 7.9793 11.453 8.0752 11.46 0v-6.5502h6.091v-20.52a8.8017 8.8017 0 0 0 -6.91 -8.75zm-57.25 16.89a5.4263 5.4263 0 1 1 5.2695 -5.421 5.3284 5.3284 0 0 1 -5.27 5.42zm26.095-17.037h-24.71l4.71-12.69c0.568-1.8014 1.4497-3.0904 3.532-3.1217h32.951c2.0504 0.03122 2.9344 1.3195 3.5298 3.1217l4.7076 12.691h-24.72zm26.096 17.037a5.4263 5.4263 0 1 1 5.2703 -5.421 5.3752 5.3752 0 0 1 -5.27 5.42z"/>
        <path class="cls-8" d="m778.42 97.476l-4.79 2.489-3.4114-2.5627 8.0698-4.1911zm-20.734-5.1929c-1.0134 3.1313-0.55839 7.6086 1.4972 11.567a17.059 17.059 0 0 0 3.0572 4.1965c-1.1931-3.3615-0.92154-6.4564 2.0524-9.2427a41.42 41.42 0 0 1 -6.61 -6.524zm23.596-12.276a45.196 45.196 0 0 1 1.5584 9.164c3.9881-0.82944 6.6762 0.72842 8.7398 3.6378a17.062 17.062 0 0 0 -1.6755 -4.9162c-2.06-3.968-5.48-6.92-8.63-7.887zm-25.672-20.53c-6.6197 16.781 3.015 30.463 12.055 37.083l11.4-5.926c-0.44-11.655-5.88-27.033-23.47-31.157zm12.436 23.882a1.9233 1.9233 0 1 1 0.82038 -2.5932 1.924 1.924 0 0 1 -0.83 2.593zm-3.5457-6.8273a3.8466 3.8466 0 1 1 1.6408 -5.1865 3.848 3.848 0 0 1 -1.65 5.186z"/>
        <rect y="-1" width="1400" class="cls-9" height="552"/>
    </g>
    <rect width="1400" class="cls-10" height="550"/>
</svg>