<?xml version="1.0" encoding="iso-8859-1"?>
<!-- Generator: Adobe Illustrator 19.0.0, SVG Export Plug-In . SVG Version: 6.00 Build 0)  -->
<svg version="1.1" id="Capa_1" xmlns="http://www.w3.org/2000/svg" xmlns:xlink="http://www.w3.org/1999/xlink" x="0px" y="0px"
	 viewBox="0 0 512 512" style="enable-background:new 0 0 512 512;" xml:space="preserve">
<circle style="fill:#F40057;" cx="256" cy="256" r="256"/>
<g>
	<path style="fill:#CE0054;" d="M319.568,91.119l191.104,191.104C511.55,273.601,512,264.853,512,256
		c0-7.533-0.345-14.984-0.982-22.351L343.549,66.179L319.568,91.119z"/>
	<path style="fill:#CE0054;" d="M277.238,511.117c117.899-9.685,213.152-99.249,231.537-214.469L330.154,118.027l-2.725,3.538
		L300.575,94.71l-35.642,51.752l-71.468-71.468L179.198,90.59l4.243,4.243l54.761,54.762l-59.004,6.914l51.278,51.278l-12.137,9.081
		L319.08,317.61L188.979,422.857L277.238,511.117z"/>
</g>
<path style="fill:#FFFFFF;" d="M308.045,108.134c-8.234-21.152-28.782-36.15-52.847-36.15s-44.613,14.998-52.847,36.15
	c-17.052,0.023-30.745,14.381-29.67,31.67c0.906,14.586,12.575,26.528,27.137,27.759c4.462,0.377,8.736-0.238,12.635-1.638
	c0.056,0.065,0.113,0.129,0.169,0.193c13.035,14.816,20.514,33.698,20.514,53.432v21.484h44.123V219.55
	c0-19.734,7.479-38.616,20.514-53.432c0.057-0.064,0.113-0.129,0.169-0.193c3.9,1.401,8.173,2.016,12.635,1.638
	c14.562-1.231,26.23-13.173,27.137-27.759C338.789,122.516,325.097,108.157,308.045,108.134z"/>
<path style="fill:#E0E0E0;" d="M308.045,108.134c-8.147-20.93-28.354-35.825-52.093-36.135v169.035h21.307V219.55
	c0-19.734,7.479-38.616,20.514-53.432c0.057-0.064,0.113-0.129,0.169-0.193c3.899,1.401,8.173,2.016,12.635,1.638
	c14.562-1.231,26.23-13.173,27.137-27.759C338.789,122.516,325.097,108.157,308.045,108.134z"/>
<circle style="fill:#FFFFFF;" cx="185.56" cy="82.08" r="10.632"/>
<circle style="fill:#E0E0E0;" cx="330.15" cy="77.3" r="17.41"/>
<path style="fill:#83FEFE;" d="M283.661,273.861v-78.395h-55.29v78.395c-36.906,11.713-63.651,46.246-63.651,87.03
	c0,50.421,40.874,91.296,91.296,91.296s91.296-40.874,91.296-91.296C347.312,320.107,320.568,285.574,283.661,273.861z"/>
<path style="fill:#18FEFE;" d="M283.661,273.861v-78.395h-27.709v256.72c0.021,0,0.042,0.001,0.064,0.001
	c50.421,0,91.296-40.875,91.296-91.296C347.312,320.107,320.567,285.573,283.661,273.861z"/>
<path style="fill:#32D736;" d="M176.682,353.62c-0.389,3.199-0.591,6.455-0.591,9.759c0,44.142,35.784,79.926,79.926,79.926
	s79.926-35.784,79.926-79.926c0-3.304-0.202-6.56-0.591-9.759H176.682z"/>
<path style="fill:#10BB67;" d="M335.351,353.62h-79.398v89.683c0.021,0,0.042,0.002,0.064,0.002
	c44.142,0,79.926-35.784,79.926-79.926C335.942,360.075,335.74,356.818,335.351,353.62z"/>
<rect x="218.34" y="193.68" style="fill:#18FEFE;" width="75.36" height="23.19"/>
<rect x="255.95" y="193.68" style="fill:#00E4FE;" width="37.741" height="23.19"/>
<g>
</g>
<g>
</g>
<g>
</g>
<g>
</g>
<g>
</g>
<g>
</g>
<g>
</g>
<g>
</g>
<g>
</g>
<g>
</g>
<g>
</g>
<g>
</g>
<g>
</g>
<g>
</g>
<g>
</g>
</svg>
