<?xml version="1.0" encoding="iso-8859-1"?>
<!-- Generator: Adobe Illustrator 19.0.0, SVG Export Plug-In . SVG Version: 6.00 Build 0)  -->
<svg version="1.1" id="Capa_1" xmlns="http://www.w3.org/2000/svg" xmlns:xlink="http://www.w3.org/1999/xlink" x="0px" y="0px"
	 viewBox="0 0 512 512" style="enable-background:new 0 0 512 512;" xml:space="preserve">
<circle style="fill:#004EB1;" cx="256" cy="256" r="256"/>
<path style="fill:#002D6B;" d="M511.95,259.95l-75.617-75.617l-32.343,18.72l-55.181-62.03L275,148.333l81.948,81.949l-7.178,4.155
	L237,121.667l-130,68.619L93.001,347.52l164.462,164.462C396.854,511.2,509.844,399.024,511.95,259.95z"/>
<polygon style="fill:#00AFFE;" points="75.667,184.333 180.333,121.667 237,121.667 237,148.333 189,148.333 143.667,211 "/>
<polygon style="fill:#0287D0;" points="436.333,184.333 331.667,121.667 275,121.667 275,148.333 323,148.333 368.333,211 "/>
<path style="fill:#E0E0E0;" d="M75.667,184.333v119c0,35.898,29.101,65,65,65h58c15.832,0,28.667-12.835,28.667-28.667V327
	c0-15.832,12.835-28.667,28.667-28.667l0,0c15.832,0,28.667,12.835,28.667,28.667v12.667c0,15.832,12.835,28.667,28.667,28.667h58
	c35.898,0,65-29.101,65-65v-119L75.667,184.333L75.667,184.333z"/>
<path style="fill:#C0C0C0;" d="M255.952,184.333v114.001c0.016,0,0.032-0.001,0.048-0.001c15.832,0,28.667,12.834,28.667,28.667
	v12.667c0,15.832,12.834,28.667,28.667,28.667h58c35.899,0,65-29.102,65-65v-119L255.952,184.333L255.952,184.333z"/>
<rect x="75.67" y="184.33" style="fill:#FFFFFF;" width="360.67" height="52"/>
<rect x="255.95" y="184.33" style="fill:#E0E0E0;" width="180.38" height="52"/>
<g>
</g>
<g>
</g>
<g>
</g>
<g>
</g>
<g>
</g>
<g>
</g>
<g>
</g>
<g>
</g>
<g>
</g>
<g>
</g>
<g>
</g>
<g>
</g>
<g>
</g>
<g>
</g>
<g>
</g>
</svg>
