<?xml version="1.0" encoding="iso-8859-1"?>
<!-- Generator: Adobe Illustrator 19.0.0, SVG Export Plug-In . SVG Version: 6.00 Build 0)  -->
<svg version="1.1" id="Capa_1" xmlns="http://www.w3.org/2000/svg" xmlns:xlink="http://www.w3.org/1999/xlink" x="0px" y="0px"
	 viewBox="0 0 512 512" style="enable-background:new 0 0 512 512;" xml:space="preserve">
<circle style="fill:#FEDB41;" cx="256" cy="256" r="256"/>
<path style="fill:#FCBF29;" d="M512,256c0-23.124-3.084-45.524-8.832-66.832l-74.835-74.835L66,357.667L217.444,509.11
	c12.576,1.9,25.45,2.89,38.556,2.89C397.385,512,512,397.385,512,256z"/>
<rect x="83.67" y="114.33" style="fill:#37474F;" width="344.67" height="235.33"/>
<rect x="255.95" y="114.33" style="fill:#27373D;" width="172.38" height="235.33"/>
<rect x="101.78" y="131" style="fill:#E0F4FD;" width="308.45" height="217.32"/>
<rect x="255.95" y="131" style="fill:#7FD7FE;" width="154.27" height="217.32"/>
<rect x="66" y="313.67" style="fill:#263238;" width="380" height="44"/>
<rect x="255.95" y="313.67" style="fill:#1A2428;" width="190.05" height="44"/>
<path style="fill:#607D8A;" d="M373.322,293.226h-97.41v-97.41h97.41V293.226z M295.913,273.226h57.41v-57.41h-57.41V273.226z"/>
<polygon style="fill:#446672;" points="373.322,195.816 326.19,195.816 326.19,215.816 353.322,215.816 353.322,273.226 
	326.19,273.226 326.19,293.226 373.322,293.226 "/>
<circle style="fill:#32D736;" cx="285.91" cy="205.82" r="17.957"/>
<circle style="fill:#10BB67;" cx="361.87" cy="205.82" r="17.957"/>
<circle style="fill:#32D736;" cx="285.91" cy="283.23" r="17.957"/>
<circle style="fill:#10BB67;" cx="361.87" cy="283.23" r="17.957"/>
<path style="fill:#455A64;" d="M332.904,252.807h-97.41v-97.41h97.41V252.807z M255.494,232.807h57.41v-57.41h-57.41
	L255.494,232.807L255.494,232.807z"/>
<polygon style="fill:#2C4A56;" points="332.904,155.397 281.548,155.397 281.548,175.397 312.904,175.397 312.904,232.807 
	281.548,232.807 281.548,252.807 332.904,252.807 "/>
<circle style="fill:#10BB67;" cx="245.49" cy="165.4" r="17.957"/>
<circle style="fill:#187A1F;" cx="321.45" cy="165.4" r="17.957"/>
<circle style="fill:#10BB67;" cx="245.49" cy="242.81" r="17.957"/>
<circle style="fill:#187A1F;" cx="321.45" cy="242.81" r="17.957"/>
<g>
	<rect x="121.67" y="185" style="fill:#AFBDC4;" width="71.33" height="12.667"/>
	<rect x="121.67" y="252.5" style="fill:#AFBDC4;" width="71.33" height="12.667"/>
	<rect x="121.67" y="218.75" style="fill:#AFBDC4;" width="71.33" height="12.667"/>
</g>
<g>
</g>
<g>
</g>
<g>
</g>
<g>
</g>
<g>
</g>
<g>
</g>
<g>
</g>
<g>
</g>
<g>
</g>
<g>
</g>
<g>
</g>
<g>
</g>
<g>
</g>
<g>
</g>
<g>
</g>
</svg>
