<svg xmlns="http://www.w3.org/2000/svg" width="20" height="20" viewBox="0 0 20 20">
    <g fill-rule="evenodd" id="author">
        <path d="M10 0C4.477 0 0 4.477 0 10c0 5.522 4.477 10 10 10 5.522 0 10-4.478 10-10 0-5.523-4.478-10-10-10m0 1c4.963 0 9 4.038 9 9 0 4.963-4.037 9-9 9-4.962 0-9-4.037-9-9 0-4.962 4.038-9 9-9"/>
        <path d="M10 11a4 4 0 1 1 0-8 4 4 0 0 1 0 8zm0 1.5c2.959 0 5.534 1.309 6.917 3.249a8.985 8.985 0 0 1-13.834 0C4.466 13.809 7.042 12.5 10 12.5z"/>
    </g>
    <g id="upload">
        <path fill-rule="evenodd" d="M15.313 14.8c-.518 0-.938-.39-.938-.873 0-.482.42-.872.938-.872 1.553 0 2.813-1.173 2.813-2.619 0-.78-.369-1.478-.95-1.957a2.685 2.685 0 0 0-.417-.284 2.61 2.61 0 0 0-.183-.095l-.053-.024a2.82 2.82 0 0 0-.175-.072l-.079-.028a2.966 2.966 0 0 0-.162-.05c-.036-.01-.073-.018-.11-.027-.048-.01-.095-.022-.144-.031a4.216 4.216 0 0 0-.153-.022c-.037-.005-.074-.011-.112-.015a3.12 3.12 0 0 0-.275-.013c-.03 0-.058.004-.087.005a4.68 4.68 0 0 0-.107-.44c-.01-.036-.025-.07-.036-.104a4.772 4.772 0 0 0-.113-.324c-.013-.031-.029-.062-.043-.094a4.35 4.35 0 0 0-.148-.317c-.012-.026-.028-.05-.04-.074a4.513 4.513 0 0 0-.188-.32C13.623 4.712 11.935 3.746 10 3.746s-3.623.966-4.551 2.406c-.067.103-.128.21-.187.319l-.042.074c-.053.103-.1.21-.147.317-.014.032-.03.063-.043.094a4.768 4.768 0 0 0-.113.324c-.011.035-.025.068-.036.104-.042.144-.078.29-.107.44-.029-.001-.057-.005-.086-.005a3.13 3.13 0 0 0-.276.013c-.038.004-.074.01-.111.015a4.397 4.397 0 0 0-.154.022c-.048.009-.096.02-.143.031-.037.009-.075.017-.11.027a3.085 3.085 0 0 0-.163.05l-.08.028a2.82 2.82 0 0 0-.41.19l-.03.018a2.826 2.826 0 0 0-.188.117c-.004.003-.009.006-.012.01a2.694 2.694 0 0 0-.187.14c-.581.48-.95 1.177-.95 1.957 0 1.446 1.26 2.619 2.814 2.619.518 0 .937.39.937.872s-.42.873-.937.873C2.098 14.8 0 12.847 0 10.436c0-1.965 1.397-3.627 3.316-4.172C4.36 3.77 6.952 2 10 2s5.64 1.77 6.684 4.264C18.604 6.809 20 8.47 20 10.436c0 2.41-2.098 4.364-4.687 4.364m-8.822-2.038l2.812-2.91.003.003A.961.961 0 0 1 10 9.564c.276 0 .523.113.695.291l.002-.003 2.813 2.91-.003.002a.835.835 0 0 1 .243.581c0 .483-.42.873-.937.873a.963.963 0 0 1-.695-.29l-.002.002-1.178-1.219v4.416c0 .482-.42.873-.938.873s-.938-.39-.938-.873v-4.416L7.884 13.93l-.002-.003a.964.964 0 0 1-.694.291c-.518 0-.938-.39-.938-.873 0-.224.094-.427.243-.581l-.002-.002"/>
    </g>
</svg>
