<?xml version="1.0" encoding="iso-8859-1"?>
<!-- Generator: Adobe Illustrator 19.0.0, SVG Export Plug-In . SVG Version: 6.00 Build 0)  -->
<svg version="1.1" id="Layer_1" xmlns="http://www.w3.org/2000/svg" xmlns:xlink="http://www.w3.org/1999/xlink" x="0px" y="0px"
	 viewBox="0 0 512.002 512.002" style="enable-background:new 0 0 512.002 512.002;" xml:space="preserve">
<circle style="fill:#273B7A;" cx="256.001" cy="256" r="256"/>
<path style="fill:#121149;" d="M509.653,290.692L341.334,122.373l-102.643,30.12l-68.024,38.022L236.152,256H134.179v93.622
	l-46.07,16.243l145.117,145.117c7.506,0.662,15.098,1.021,22.776,1.021C385.618,512,492.719,415.665,509.653,290.692z"/>
<path style="fill:#FFFFFF;" d="M363.96,248.242H263.758v-77.576h-15.515v77.576H148.041c-15.329,0-27.798,12.469-27.798,27.798
	v36.848h15.515V276.04c0-6.773,5.51-12.283,12.283-12.283h100.202v49.131h15.515v-49.131H363.96c6.773,0,12.283,5.51,12.283,12.283
	v36.848h15.515V276.04C391.758,260.711,379.289,248.242,363.96,248.242z"/>
<path style="fill:#D0D1D3;" d="M363.96,248.242H263.758v-77.576h-7.758v142.222h7.758v-49.131H363.96
	c6.773,0,12.283,5.51,12.283,12.283v36.848h15.515V276.04C391.758,260.711,379.289,248.242,363.96,248.242z"/>
<path style="fill:#FFC61B;" d="M333.284,193.508H178.718c-6.827,0-12.36-5.534-12.36-12.36v-49.407c0-6.827,5.534-12.36,12.36-12.36
	h154.565c6.827,0,12.36,5.534,12.36,12.36v49.407C345.644,187.975,340.11,193.508,333.284,193.508z"/>
<path style="fill:#EAA22F;" d="M333.284,119.38h-77.283v74.128h77.283c6.827,0,12.36-5.534,12.36-12.36v-49.407
	C345.644,124.914,340.11,119.38,333.284,119.38z"/>
<path style="fill:#FF7F4F;" d="M162.239,368.054H93.762c-4.655,0-8.428-3.774-8.428-8.428v-55.549c0-4.655,3.774-8.428,8.428-8.428
	h68.479c4.655,0,8.428,3.774,8.428,8.428v55.549C170.668,364.28,166.894,368.054,162.239,368.054z"/>
<g>
	<path style="fill:#D35933;" d="M162.239,295.65h-35.531v72.404h35.531c4.655,0,8.428-3.774,8.428-8.428v-55.549
		C170.668,299.423,166.894,295.65,162.239,295.65z"/>
	<path style="fill:#D35933;" d="M290.239,368.054h-68.479c-4.655,0-8.428-3.774-8.428-8.428v-55.549
		c0-4.655,3.774-8.428,8.428-8.428h68.479c4.655,0,8.428,3.774,8.428,8.428v55.549C298.668,364.28,294.894,368.054,290.239,368.054z
		"/>
</g>
<g>
	<path style="fill:#B54324;" d="M290.239,295.65h-34.238v72.404h34.238c4.655,0,8.428-3.774,8.428-8.428v-55.549
		C298.668,299.423,294.894,295.65,290.239,295.65z"/>
	<path style="fill:#B54324;" d="M418.239,368.054h-68.479c-4.655,0-8.428-3.774-8.428-8.428v-55.549
		c0-4.655,3.774-8.428,8.428-8.428h68.479c4.655,0,8.428,3.774,8.428,8.428v55.549C426.668,364.28,422.894,368.054,418.239,368.054z
		"/>
</g>
<path style="fill:#930000;" d="M418.239,295.65h-35.244v72.404h35.244c4.655,0,8.428-3.774,8.428-8.428v-55.549
	C426.668,299.423,422.894,295.65,418.239,295.65z"/>
<g>
</g>
<g>
</g>
<g>
</g>
<g>
</g>
<g>
</g>
<g>
</g>
<g>
</g>
<g>
</g>
<g>
</g>
<g>
</g>
<g>
</g>
<g>
</g>
<g>
</g>
<g>
</g>
<g>
</g>
</svg>
