<?xml version="1.0" encoding="UTF-8" standalone="no"?>
<svg xmlns="http://www.w3.org/2000/svg" height="16px" width="215px" version="1.1" xmlns:xlink="http://www.w3.org/1999/xlink" viewBox="0 0 215 16">
    <defs>
        <polygon id="path-1" points="13.941 0.16005 0.040277 0.16005 0.040277 14.06 13.941 14.06"/>
        <polygon id="path-3" points="14.098 0.16005 0.19732 0.16005 0.19732 14.06 14.098 14.06"/>
    </defs>
    <g id="flogo.io" fill-rule="evenodd" fill="none">
        <g id="Landing-Page-w/o-video" transform="translate(-100 -17)">
            <g id="flogo-wordmark" transform="translate(100 17)">
                <g id="Page-1">
                    <path id="Fill-1" fill="#221F20" d="m0.73391 0.81979v7.7743h2.2175c0.9674 0 1.7944-0.3799 2.4821-1.1395 0.6877-0.7597 1.0318-1.677 1.0318-2.7522 0-1.0751-0.3441-1.9909-1.0318-2.7476s-1.5147-1.135-2.4821-1.135l-2.2175-0.00001zm0 8.5941v4.9991h-0.73391v-14.413h3.4239c0.995 0.15027 1.84 0.60963 2.5357 1.3783 0.8316 0.9188 1.2471 2.0268 1.2471 3.3241 0 1.3032-0.4155 2.4142-1.2471 3.3332-0.8315 0.9187-1.8342 1.3783-3.0082 1.3783h-2.2175z"/>
                    <path id="Fill-3" fill="#221F20" d="m15.615 6.198h0.812v1.4976c0.169-0.223 0.365-0.4378 0.587-0.6441 0.717-0.6638 1.452-1.0124 2.204-1.0459v0.8199c-0.512 0.0224-1.041 0.2873-1.59 0.7949-0.77 0.7081-1.17 1.5589-1.201 2.5516v4.241h-0.812v-8.215z"/>
                    <path id="Fill-5" fill="#221F20" d="m28.42 6.8066c-0.776 0.7752-1.164 1.7107-1.164 2.8066 0 1.0958 0.388 2.0298 1.164 2.8018 0.776 0.773 1.712 1.159 2.809 1.159s2.033-0.386 2.809-1.159c0.776-0.772 1.164-1.706 1.164-2.8018 0-1.0959-0.388-2.0314-1.164-2.8066s-1.712-1.1629-2.809-1.1629-2.033 0.3877-2.809 1.1629m2.809-2.0021c1.331 0 2.463 0.4692 3.4 1.4076 0.936 0.9386 1.405 2.0722 1.405 3.4011 0 1.3228-0.469 2.4538-1.405 3.3928-0.937 0.938-2.069 1.407-3.4 1.407-1.324 0-2.456-0.469-3.395-1.407-0.94-0.939-1.409-2.07-1.409-3.3928 0-1.3289 0.469-2.4625 1.409-3.4011 0.939-0.9384 2.071-1.4076 3.395-1.4076"/>
                    <path id="Fill-7" fill="#221F20" d="m45.394 2.6227c0.166 0.147 0.248 0.3252 0.248 0.5344 0 0.215-0.082 0.3957-0.248 0.5427s-0.365 0.2205-0.596 0.2205c-0.232 0-0.43-0.0735-0.595-0.2205-0.166-0.147-0.25-0.3277-0.25-0.5427 0-0.2092 0.084-0.3874 0.25-0.5344 0.165-0.147 0.363-0.2205 0.595-0.2205 0.231 0 0.43 0.0735 0.596 0.2205zm-2.154 12.228c0.757-0.079 1.136-0.463 1.136-1.153v-8.3445h0.844v8.3275c0 1.193-0.66 1.837-1.98 1.934v-0.764z"/>
                    <path id="Fill-9" fill="#221F20" d="m60.974 6.4308c-0.658-0.5244-1.423-0.7868-2.294-0.7868-1.052 0-1.951 0.3861-2.699 1.1584-0.748 0.7724-1.121 1.7063-1.121 2.8023 0 0.9033 0.253 1.6963 0.758 2.3783l5.356-5.5522zm-4.841 6.1292c0.714 0.676 1.563 1.014 2.547 1.014 1.057 0 1.959-0.388 2.707-1.163 0.096-0.099 0.186-0.201 0.27-0.306l0.801 0.297c-0.146 0.21-0.312 0.412-0.498 0.604-0.905 0.938-1.998 1.407-3.28 1.407-1.277 0-2.367-0.469-3.272-1.407-0.906-0.939-1.358-2.072-1.358-3.4013 0-1.3233 0.452-2.454 1.358-3.3924 0.905-0.9384 1.995-1.4078 3.272-1.4078 1.096 0 2.055 0.341 2.875 1.023 0.135 0.1167 0.27 0.2449 0.405 0.3848 0.051 0.0524 0.099 0.1049 0.144 0.1573l-0.574 0.5945-5.397 5.5959z"/>
                    <path id="Fill-11" fill="#221F20" d="m78.473 12.105l0.801 0.297c-0.146 0.21-0.312 0.411-0.498 0.604-0.905 0.938-1.998 1.407-3.28 1.407-1.277 0-2.368-0.469-3.272-1.407-0.906-0.939-1.358-2.073-1.358-3.4016 0-1.323 0.452-2.4537 1.358-3.3923 0.904-0.9384 1.995-1.4076 3.272-1.4076 1.282 0 2.375 0.4692 3.28 1.4076 0.186 0.1923 0.352 0.3905 0.498 0.5945l-0.801 0.306c-0.085-0.1049-0.174-0.2097-0.27-0.3148-0.748-0.7695-1.65-1.1541-2.707-1.1541-1.052 0-1.951 0.3862-2.699 1.1585s-1.121 1.7065-1.121 2.8022c0 1.0956 0.373 2.0316 1.121 2.8066s1.647 1.163 2.699 1.163c1.057 0 1.959-0.388 2.707-1.163 0.096-0.099 0.185-0.201 0.27-0.306"/>
                    <polygon id="Fill-13" points="89.643 5.9884 89.643 2.4022 90.525 2.4022 90.525 5.9884 92.486 5.9884 92.486 6.7605 90.525 6.7605 90.525 14.413 89.643 14.413 89.643 6.7605 87.682 6.7605 87.682 5.9884" fill="#221F20"/>
                    <polygon id="Fill-15" points="118.91 0 118.91 0.8107 113.68 0.8107 113.68 6.8014 118.91 6.8014 118.91 7.6121 113.68 7.6121 113.68 14.413 112.91 14.413 112.91 0" fill="#221F20"/>
                    <polygon id="Fill-17" points="127.32 14.413 127.32 0 128.08 0 128.08 13.603 133.32 13.603 133.32 14.413" fill="#221F20"/>
                    <g id="Group-21" transform="translate(140.53)">
                        <mask id="mask-2" fill="white">
                            <use xlink:href="#path-1"/>
                        </mask>
                        <path id="Fill-19" fill="#221F20" mask="url(#mask-2)" d="m6.9907 0.93891c-1.7043 0-3.1589 0.60249-4.3642 1.8073-1.2048 1.2051-1.8073 2.6596-1.8073 4.3639-0.00001 1.7046 0.6025 3.1609 1.8073 4.3679 1.2053 1.208 2.6599 1.812 4.3642 1.812s3.1593-0.604 4.3633-1.812c1.205-1.207 1.808-2.6633 1.808-4.3679 0-1.7043-0.603-3.1588-1.808-4.3639-1.204-1.2048-2.659-1.8073-4.3633-1.8073m4.9143 1.2571c1.357 1.3573 2.036 2.9955 2.036 4.9141 0 1.9189-0.679 3.5569-2.036 4.9139-1.358 1.358-2.9954 2.036-4.9143 2.036s-3.5569-0.678-4.9145-2.036c-1.3573-1.357-2.0359-2.995-2.0359-4.9139-0.000023-1.9186 0.67863-3.5568 2.0359-4.9141 1.3576-1.3571 2.9956-2.036 4.9145-2.036s3.5563 0.67891 4.9143 2.036"/>
                    </g>
                    <path id="Fill-22" fill="#221F20" d="m175.31 12.495c-1.33 1.279-2.92 1.918-4.78 1.918-1.98 0-3.68-0.702-5.08-2.107s-2.1-3.1048-2.1-5.0994c0-1.9886 0.7-3.6868 2.1-5.0947 1.4-1.4078 3.1-2.1119 5.08-2.1119 1.86 0 3.47 0.62473 4.83 1.8742l-0.59 0.5456c-1.21-1.0734-2.62-1.6102-4.24-1.6102-1.76 0.00004-3.26 0.6248-4.5 1.8742-1.25 1.2495-1.87 2.7572-1.87 4.5228 0 1.7718 0.62 3.2824 1.87 4.5314 1.24 1.25 2.74 1.875 4.5 1.875 1.51 0 2.84-0.467 3.99-1.399v-4.2947h0.79v4.5757z"/>
                    <g id="Group-26" transform="translate(183.77)">
                        <mask id="mask-4" fill="white">
                            <use xlink:href="#path-3"/>
                        </mask>
                        <path id="Fill-24" fill="#221F20" mask="url(#mask-4)" d="m7.1472 0.93891c-1.7043 0-3.1589 0.60249-4.3636 1.8073-1.2054 1.2051-1.8076 2.6596-1.8076 4.3639-0.00002 1.7046 0.6022 3.1609 1.8076 4.3679 1.2047 1.208 2.6593 1.812 4.3636 1.812s3.1588-0.604 4.3638-1.812c1.205-1.207 1.808-2.6633 1.808-4.3679 0-1.7043-0.603-3.1588-1.808-4.3639-1.205-1.2048-2.6595-1.8073-4.3638-1.8073m4.9148 1.2571c1.357 1.3573 2.036 2.9955 2.036 4.9141 0 1.9189-0.679 3.5569-2.036 4.9139-1.358 1.358-2.9959 2.036-4.9148 2.036s-3.5568-0.678-4.9139-2.036c-1.3573-1.357-2.036-2.995-2.036-4.9139 0.00002-1.9186 0.67867-3.5568 2.036-4.9141 1.3571-1.3571 2.995-2.036 4.9139-2.036s3.5568 0.67891 4.9148 2.036"/>
                    </g>
                    <polygon id="Fill-27" points="204.75 2.4193 202.99 2.4193 202.99 1.2011 207.79 1.2011 207.79 2.4193 206.03 2.4193 206.03 7.2067 204.75 7.2067" fill="#221F20"/>
                    <polygon id="Fill-29" points="208.99 1.2011 210.42 1.2011 212 3.7407 213.58 1.2011 215 1.2011 215 7.2067 213.69 7.2067 213.69 3.286 212 5.8514 211.96 5.8514 210.29 3.3116 210.29 7.2067 208.99 7.2067" fill="#221F20"/>
                </g>
            </g>
        </g>
    </g>
</svg>